<svg t="1711972664986" class="icon" viewBox="0 0 1024 1024" version="1.1" xmlns="http://www.w3.org/2000/svg" p-id="9096" width="200" height="200"><path d="M245.930667 233.770667C196.608 285.098667 163.413333 343.936 146.432 410.282667c-16.981333 66.346667-15.616 133.674667 4.010667 202.026666 19.626667 68.309333 54.613333 125.994667 104.96 172.970667 50.346667 47.018667 110.08 78.336 179.029333 94.037333 68.992 15.658667 136.362667 12.8 202.026667-8.533333 65.706667-21.333333 122.197333-58.325333 169.514666-110.976-77.354667 18.645333-153.173333 17.621333-227.498666-3.029333s-139.648-59.178667-196.010667-115.498667c-56.32-56.32-94.805333-121.642667-115.456-195.968-20.650667-74.368-21.674667-150.186667-2.986667-227.498667l-18.090666 15.957334z m182.016 362.026666c74.666667 71.978667 161.024 109.482667 258.986666 112.512 98.048 2.986667 186.709333-28.842667 266.026667-95.488-28.672 108.672-86.314667 194.133333-172.970667 256.512-86.656 62.293333-186.026667 89.813333-298.026666 82.474667-112-10.666667-205.653333-53.674667-281.002667-128.981333-75.306667-75.306667-118.314667-168.96-128.981333-281.002667-7.338667-112 20.181333-211.328 82.517333-297.984C216.746667 157.141333 302.336 99.498667 411.008 70.826667 344.32 150.186667 312.490667 238.848 315.52 336.853333c2.986667 98.005333 40.533333 184.32 112.512 258.986667l-0.085333-0.042667z" fill="#707070" fill-opacity=".65" p-id="9097"></path></svg>