<svg t="1713011009827" class="icon" viewBox="0 0 1024 1024" version="1.1" xmlns="http://www.w3.org/2000/svg" p-id="5864" width="200" height="200"><path d="M880.014222 112.014222H144.014222c-17.720889 0-32 14.279111-32 31.971556v736c0 17.720889 14.279111 32 31.971556 32h736c17.720889 0 32-14.279111 32-31.971556V144.014222c0-17.720889-14.279111-32-31.971556-32z m-92.416 233.472h-63.886222c-50.119111 0-59.818667 23.808-59.818667 58.823111v77.084445h119.608889l-15.616 120.718222H663.893333v309.902222h-124.700444V602.168889H434.915556v-120.803556h104.277333v-89.002666c0-103.281778 63.118222-159.573333 155.306667-159.573334 44.202667 0 82.090667 3.271111 93.212444 4.778667v107.889778h-0.113778z" fill="#e6e6e6" fill-opacity=".65" p-id="5865"></path></svg>