<svg t="1711978321251" class="icon" viewBox="0 0 1462 1024" version="1.1" xmlns="http://www.w3.org/2000/svg" p-id="5870" width="200" height="200"><path d="M731.429 585.143c-14.629 0-29.258-7.314-43.886-14.629L29.257 131.657C0 109.714-7.314 65.83 14.63 29.257 36.57 0 80.457-7.314 117.029 14.63l614.4 409.6 614.4-409.6C1382.4-7.314 1426.286 0 1448.229 36.57c21.942 36.572 14.628 80.458-21.943 102.4L768 577.83c-7.314 0-21.943 7.314-36.571 7.314z" fill="#8a8a8a" p-id="5871"></path><path d="M731.429 1024c-14.629 0-29.258-7.314-43.886-14.629L29.257 570.514C0 548.571-7.314 504.686 14.63 468.114c21.942-29.257 65.828-36.571 102.4-14.628l614.4 409.6 614.4-409.6c36.571-21.943 80.457-14.629 102.4 21.943 21.942 36.571 14.628 80.457-21.943 102.4L768 1016.686c-7.314 0-21.943 7.314-36.571 7.314z" fill="#8a8a8a" p-id="5872"></path></svg>