<svg t="1711972500991" class="icon" viewBox="0 0 1024 1024" version="1.1" xmlns="http://www.w3.org/2000/svg" p-id="5205" width="200" height="200"><path d="M400.420571 171.300571l18.285715 54.857143a36.534857 36.534857 0 0 1 1.865143 11.556572H585.142857a36.571429 36.571429 0 0 1 0 73.142857l-44.836571-0.036572c-1.718857 5.961143-3.657143 12.434286-5.851429 19.492572-11.227429 35.547429-25.234286 71.168-42.349714 104.630857-19.748571 38.656-42.422857 72.045714-68.498286 98.669714l-1.828571 1.828572c12.982857 8.484571 27.209143 17.078857 42.532571 25.6 29.257143 16.347429 60.745143 31.744 92.269714 45.677714a1175.917714 1175.917714 0 0 0 41.654858 17.408c2.157714 0.841143 4.169143 1.828571 6.070857 2.998857l57.051428-129.828571c12.8-29.147429 54.162286-29.147429 66.962286 0l104.301714 237.202285 41.764572 91.428572c20.297143 44.361143-46.226286 74.752-66.486857 30.427428l-32.073143-70.070857h-161.974857l-32.036572 70.070857c-19.638857 43.008-82.797714 15.725714-68.096-26.441142l1.609143-3.986286 41.764571-91.428572 18.066286-41.033142a37.046857 37.046857 0 0 1-3.108571-1.024 1248.768 1248.768 0 0 1-45.019429-18.834286 1184.438857 1184.438857 0 0 1-98.377143-48.676572 706.925714 706.925714 0 0 1-63.524571-39.606857c-6.985143 5.595429-14.372571 11.190857-21.979429 16.749715a1104.420571 1104.420571 0 0 1-98.633143 64.073142 1117.622857 1117.622857 0 0 1-45.238857 24.795429 36.571429 36.571429 0 1 1-32.841143-65.316571 1044.845714 1044.845714 0 0 0 41.435429-22.747429c31.451429-18.249143 62.829714-38.4 92.013714-59.794286l9.325715-6.948571a368.64 368.64 0 0 1-31.085715-40.301714 470.089143 470.089143 0 0 1-43.483428-81.846858 378.148571 378.148571 0 0 1-13.787429-38.217142 36.571429 36.571429 0 0 1 70.290286-20.114286c1.609143 5.595429 5.266286 16.310857 11.081143 30.354286 9.801143 23.625143 21.979429 47.250286 36.608 69.083428 8.228571 12.251429 16.969143 23.515429 26.185143 33.682286l6.326857-6.363429c20.370286-20.772571 38.985143-48.237714 55.588571-80.713143a607.817143 607.817143 0 0 0 36.937143-90.843428H182.857143a36.571429 36.571429 0 1 1 0-73.142857h162.596571L330.971429 194.413714a36.571429 36.571429 0 0 1 69.412571-23.113143zM694.857143 602.88L646.363429 713.142857h96.950857L694.857143 602.88z" fill="#707070" fill-opacity=".65" p-id="5206"></path></svg>