<?xml version="1.0" standalone="no"?><!DOCTYPE svg PUBLIC "-//W3C//DTD SVG 1.1//EN" "http://www.w3.org/Graphics/SVG/1.1/DTD/svg11.dtd"><svg t="1743422865956" class="icon" viewBox="0 0 1024 1024" version="1.1" xmlns="http://www.w3.org/2000/svg" p-id="17016" xmlns:xlink="http://www.w3.org/1999/xlink" width="200" height="200"><path d="M608 416H896c35.370667 0 64 28.501333 64 64V896c0 35.370667-28.501333 64-64 64h-416c-35.370667 0-64-28.501333-64-64v-288H128c-35.370667 0-64-28.501333-64-64V128c0-35.370667 28.458667-64 64-64h416c35.370667 0 64 28.458667 64 64v288z m0 128c0 35.370667-28.501333 64-64 64h-64v256c0 17.706667 14.293333 32 32 32h352a32 32 0 0 0 32-32V512a32 32 0 0 0-32-32h-256v64zM128 160V512c0 17.664 14.293333 32 32 32H512a31.914667 31.914667 0 0 0 32-32V160A32 32 0 0 0 512 128H160a32 32 0 0 0-32 32z m64 244.266667V243.370667h112.725333V176h46.762667c6.4 0.938667 9.642667 1.834667 9.642667 2.730667a10.581333 10.581333 0 0 1-1.408 4.138666 74.282667 74.282667 0 0 0-4.096 26.112v34.389334h119.637333v156.757333H424.405333v-20.650667H355.626667v118.272h-49.493334V379.477333h-67.413333v24.746667H192z m46.72-122.368v60.458666h67.413333V281.941333h-67.413333v-0.042666z m185.685333 60.458666V281.941333H355.626667v60.458667h68.736z m203.818667 488.021334H576l92.16-254.378667h64.597333l89.344 254.378667H767.146667l-19.285334-53.632h-100.352l-19.285333 53.632z m33.024-96.256h72.874667L699.733333 625.493333h-1.365333l-37.12 108.629334zM122.581333 665.984a38.4 38.4 0 0 1 43.434667 32.597333c13.653333 95.488 96.896 132.181333 138.069333 138.069334a38.4 38.4 0 0 1-10.837333 76.032c-58.368-8.32-182.784-59.818667-203.264-203.264a38.4 38.4 0 0 1 32.597333-43.434667z m714.069334-361.898667a38.4 38.4 0 0 0 76.032-10.837333c-20.48-143.445333-144.896-194.944-203.264-203.264a38.4 38.4 0 1 0-10.837334 76.032c41.173333 5.888 124.416 42.581333 138.069334 138.069333z" p-id="17017"></path></svg>